<svg id="Group_118" data-name="Group 118" xmlns="http://www.w3.org/2000/svg" width="22.864" height="22.864" viewBox="0 0 22.864 22.864">
  <g id="Group_54" data-name="Group 54" transform="translate(14.581 0)">
    <path id="Path_87" data-name="Path 87" d="M1009.826,1121.284a.952.952,0,0,1-.953-.953v-4.516a.912.912,0,0,0-.91-.91h-4.516a.953.953,0,0,1,0-1.906h4.516a2.818,2.818,0,0,1,2.815,2.816v4.516A.952.952,0,0,1,1009.826,1121.284Z" transform="translate(-1002.495 -1113)" fill="#b2b2b2"/>
  </g>
  <g id="Group_55" data-name="Group 55" transform="translate(0 0)">
    <path id="Path_88" data-name="Path 88" d="M962.947,1121.284a.952.952,0,0,1-.953-.953v-4.516a2.818,2.818,0,0,1,2.815-2.816h4.516a.953.953,0,0,1,0,1.906h-4.516a.912.912,0,0,0-.91.91v4.516A.952.952,0,0,1,962.947,1121.284Z" transform="translate(-961.994 -1113)" fill="#b2b2b2"/>
  </g>
  <g id="Group_56" data-name="Group 56" transform="translate(14.581 14.58)">
    <path id="Path_89" data-name="Path 89" d="M1007.963,1161.783h-4.516a.953.953,0,0,1,0-1.905h4.516a.912.912,0,0,0,.91-.911v-4.516a.953.953,0,1,1,1.906,0v4.516A2.818,2.818,0,0,1,1007.963,1161.783Z" transform="translate(-1002.495 -1153.498)" fill="#b2b2b2"/>
  </g>
  <g id="Group_57" data-name="Group 57" transform="translate(0 14.58)">
    <path id="Path_90" data-name="Path 90" d="M969.325,1161.783h-4.516a2.818,2.818,0,0,1-2.815-2.816v-4.516a.953.953,0,1,1,1.905,0v4.516a.912.912,0,0,0,.91.911h4.516a.953.953,0,1,1,0,1.905Z" transform="translate(-961.994 -1153.498)" fill="#b2b2b2"/>
  </g>
  <g id="Group_58" data-name="Group 58" transform="translate(3.334 3.334)">
    <path id="Path_91" data-name="Path 91" d="M976.951,1129.559h-4.742a.953.953,0,0,1-.953-.953v-5.391a.952.952,0,0,1,.953-.953h4.742a.952.952,0,0,1,.953.953v5.391A.953.953,0,0,1,976.951,1129.559Zm-3.79-1.906H976v-3.486h-2.837Z" transform="translate(-971.256 -1122.262)" fill="#b2b2b2"/>
  </g>
  <g id="Group_59" data-name="Group 59" transform="translate(13.099 12.861)">
    <path id="Path_92" data-name="Path 92" d="M1003.858,1155.393h-4.525a.952.952,0,0,1-.953-.953v-3.031a.953.953,0,1,1,1.905,0v2.079h2.62v-2.858h-1.126a.953.953,0,1,1,0-1.906h2.079a.953.953,0,0,1,.953.953v4.763A.952.952,0,0,1,1003.858,1155.393Z" transform="translate(-998.38 -1148.724)" fill="#b2b2b2"/>
  </g>
  <g id="Group_60" data-name="Group 60" transform="translate(13.727 3.334)">
    <path id="Path_93" data-name="Path 93" d="M1004.974,1128.065h-3.9a.952.952,0,0,1-.953-.953v-3.9a.952.952,0,0,1,.953-.953h3.9a.952.952,0,0,1,.953.953v3.9A.952.952,0,0,1,1004.974,1128.065Zm-2.945-1.905h1.992v-1.992h-1.992Z" transform="translate(-1000.124 -1122.262)" fill="#b2b2b2"/>
  </g>
  <g id="Group_61" data-name="Group 61" transform="translate(3.334 4.2)">
    <path id="Path_94" data-name="Path 94" d="M979.809,1133.934h-7.6a.953.953,0,1,1,0-1.905h6.648v-6.409a.953.953,0,1,1,1.906,0v7.361A.953.953,0,0,1,979.809,1133.934Z" transform="translate(-971.256 -1124.667)" fill="#b2b2b2"/>
  </g>
  <g id="Group_62" data-name="Group 62" transform="translate(13.576 10.025)">
    <path id="Path_95" data-name="Path 95" d="M1000.656,1144.051a.953.953,0,0,1-.953-.953v-1.3a.952.952,0,0,1,.953-.953h4.287a.953.953,0,1,1,0,1.905h-3.334v.346A.952.952,0,0,1,1000.656,1144.051Z" transform="translate(-999.703 -1140.847)" fill="#b2b2b2"/>
  </g>
  <g id="Group_63" data-name="Group 63" transform="translate(10.5 14.223)">
    <path id="Path_96" data-name="Path 96" d="M992.114,1156.576a.953.953,0,0,1-.953-.953v-2.165a.953.953,0,0,1,1.905,0v2.165A.953.953,0,0,1,992.114,1156.576Z" transform="translate(-991.161 -1152.506)" fill="#b2b2b2"/>
  </g>
  <g id="Group_64" data-name="Group 64" transform="translate(3.334 14.161)">
    <path id="Path_97" data-name="Path 97" d="M976.734,1157.7h-4.525a.952.952,0,0,1-.953-.953v-3.464a.952.952,0,0,1,.953-.953h4.525a.952.952,0,0,1,.953.953v3.464A.952.952,0,0,1,976.734,1157.7Zm-3.573-1.905h2.62v-1.559h-2.62Z" transform="translate(-971.256 -1152.334)" fill="#b2b2b2"/>
  </g>
</svg>
