<svg xmlns="http://www.w3.org/2000/svg" width="19.497" height="23.369">
  <symbol id="user" viewBox="0 0 19.497 23.369">
    <path id="Path_35" data-name="Path 35" d="M1073.311,2118.1a5.63,5.63,0,1,0-3.98-1.649A5.447,5.447,0,0,0,1073.311,2118.1Zm-3.011-8.64a4.257,4.257,0,1,1-1.248,3.011A4.068,4.068,0,0,1,1070.3,2109.461Z" transform="translate(-1063.71 -2106.844)" fill="#fff"/>
    <path id="Path_36" data-name="Path 36" d="M1075.222,2147.371a13.9,13.9,0,0,0-.189-1.477,11.661,11.661,0,0,0-.363-1.485,7.337,7.337,0,0,0-.61-1.385,5.213,5.213,0,0,0-.92-1.2,4.05,4.05,0,0,0-1.322-.831,4.566,4.566,0,0,0-1.688-.306,1.713,1.713,0,0,0-.915.388c-.274.179-.595.385-.953.615a5.487,5.487,0,0,1-1.233.543,4.785,4.785,0,0,1-3.016,0,5.426,5.426,0,0,1-1.232-.543c-.355-.226-.676-.433-.954-.615a1.71,1.71,0,0,0-.915-.388,4.564,4.564,0,0,0-1.688.306,4.054,4.054,0,0,0-1.322.831,5.229,5.229,0,0,0-.92,1.2,7.325,7.325,0,0,0-.61,1.385,11.677,11.677,0,0,0-.363,1.484,13.811,13.811,0,0,0-.189,1.477c-.031.446-.047.911-.047,1.38a3.88,3.88,0,0,0,1.152,2.936,4.147,4.147,0,0,0,2.97,1.083h11.253a4.147,4.147,0,0,0,2.969-1.083,3.878,3.878,0,0,0,1.153-2.936C1075.269,2148.28,1075.253,2147.815,1075.222,2147.371Zm-2.05,3.324a2.793,2.793,0,0,1-2.026.706h-11.253a2.793,2.793,0,0,1-2.026-.706,2.534,2.534,0,0,1-.727-1.944c0-.438.014-.871.043-1.286a12.39,12.39,0,0,1,.171-1.33,10.228,10.228,0,0,1,.319-1.309,5.965,5.965,0,0,1,.5-1.126,3.873,3.873,0,0,1,.676-.887,2.685,2.685,0,0,1,.88-.546,3.139,3.139,0,0,1,1.079-.208c.048.025.133.074.272.164.281.184.606.393.965.622a6.77,6.77,0,0,0,1.547.692,6.156,6.156,0,0,0,3.859,0,6.8,6.8,0,0,0,1.549-.692c.367-.235.682-.438.964-.622.138-.09.224-.139.272-.164a3.14,3.14,0,0,1,1.079.208,2.693,2.693,0,0,1,.879.546,3.861,3.861,0,0,1,.677.887,5.951,5.951,0,0,1,.5,1.126,10.332,10.332,0,0,1,.32,1.309,12.683,12.683,0,0,1,.171,1.331h0c.029.413.044.845.044,1.285A2.533,2.533,0,0,1,1073.172,2150.695Z" transform="translate(-1055.772 -2129.4)" fill="#fff"/>
  </symbol>
    <symbol id="user_active" viewBox="0 0 19.497 23.369">
    <path id="Path_35" data-name="Path 35" d="M1073.311,2118.1a5.63,5.63,0,1,0-3.98-1.649A5.447,5.447,0,0,0,1073.311,2118.1Zm-3.011-8.64a4.257,4.257,0,1,1-1.248,3.011A4.068,4.068,0,0,1,1070.3,2109.461Z" transform="translate(-1063.71 -2106.844)" fill="#B72A28"/>
    <path id="Path_36" data-name="Path 36" d="M1075.222,2147.371a13.9,13.9,0,0,0-.189-1.477,11.661,11.661,0,0,0-.363-1.485,7.337,7.337,0,0,0-.61-1.385,5.213,5.213,0,0,0-.92-1.2,4.05,4.05,0,0,0-1.322-.831,4.566,4.566,0,0,0-1.688-.306,1.713,1.713,0,0,0-.915.388c-.274.179-.595.385-.953.615a5.487,5.487,0,0,1-1.233.543,4.785,4.785,0,0,1-3.016,0,5.426,5.426,0,0,1-1.232-.543c-.355-.226-.676-.433-.954-.615a1.71,1.71,0,0,0-.915-.388,4.564,4.564,0,0,0-1.688.306,4.054,4.054,0,0,0-1.322.831,5.229,5.229,0,0,0-.92,1.2,7.325,7.325,0,0,0-.61,1.385,11.677,11.677,0,0,0-.363,1.484,13.811,13.811,0,0,0-.189,1.477c-.031.446-.047.911-.047,1.38a3.88,3.88,0,0,0,1.152,2.936,4.147,4.147,0,0,0,2.97,1.083h11.253a4.147,4.147,0,0,0,2.969-1.083,3.878,3.878,0,0,0,1.153-2.936C1075.269,2148.28,1075.253,2147.815,1075.222,2147.371Zm-2.05,3.324a2.793,2.793,0,0,1-2.026.706h-11.253a2.793,2.793,0,0,1-2.026-.706,2.534,2.534,0,0,1-.727-1.944c0-.438.014-.871.043-1.286a12.39,12.39,0,0,1,.171-1.33,10.228,10.228,0,0,1,.319-1.309,5.965,5.965,0,0,1,.5-1.126,3.873,3.873,0,0,1,.676-.887,2.685,2.685,0,0,1,.88-.546,3.139,3.139,0,0,1,1.079-.208c.048.025.133.074.272.164.281.184.606.393.965.622a6.77,6.77,0,0,0,1.547.692,6.156,6.156,0,0,0,3.859,0,6.8,6.8,0,0,0,1.549-.692c.367-.235.682-.438.964-.622.138-.09.224-.139.272-.164a3.14,3.14,0,0,1,1.079.208,2.693,2.693,0,0,1,.879.546,3.861,3.861,0,0,1,.677.887,5.951,5.951,0,0,1,.5,1.126,10.332,10.332,0,0,1,.32,1.309,12.683,12.683,0,0,1,.171,1.331h0c.029.413.044.845.044,1.285A2.533,2.533,0,0,1,1073.172,2150.695Z" transform="translate(-1055.772 -2129.4)" fill="#B72A28"/>
  </symbol>
  <symbol id="water_meter" viewBox="0 0 23.363 23.369">
    <path id="Path_131" data-name="Path 131" d="M137.345,128a9.345,9.345,0,1,0,9.345,9.345A9.346,9.346,0,0,0,137.345,128Zm0,17.523a8.177,8.177,0,1,1,8.177-8.177A8.177,8.177,0,0,1,137.345,145.523Z" transform="translate(-125.664 -125.661)" fill="#fff"/>
    <path id="Path_132" data-name="Path 132" d="M187.1,200H176.584a.584.584,0,0,0-.584.584v2.336a.584.584,0,0,0,.584.584H187.1a.584.584,0,0,0,.584-.584v-2.336A.584.584,0,0,0,187.1,200Zm-.584,2.336h-9.345v-1.168h9.345Z" transform="translate(-170.159 -192.404)" fill="#fff"/>
    <path id="Path_133" data-name="Path 133" d="M275.4,266.344a1.754,1.754,0,0,0-1.068-1.068V264h-1.168v1.276a1.752,1.752,0,1,0,2.236,1.068Zm-1.652,1.161a.584.584,0,1,1,.584-.584A.584.584,0,0,1,273.743,267.5Z" transform="translate(-259.141 -251.731)" fill="#fff"/>
    <path id="Path_134" data-name="Path 134" d="M176,264h1.168v1.168H176Z" transform="translate(-170.159 -251.731)" fill="#fff"/>
    <path id="Path_135" data-name="Path 135" d="M208,264h1.168v1.168H208Z" transform="translate(-199.823 -251.731)" fill="#fff"/>
    <path id="Path_136" data-name="Path 136" d="M240,264h1.168v1.168H240Z" transform="translate(-229.487 -251.731)" fill="#fff"/>
    <path id="Path_137" data-name="Path 137" d="M176,296h1.168v1.168H176Z" transform="translate(-170.159 -281.395)" fill="#fff"/>
    <path id="Path_138" data-name="Path 138" d="M208,296h1.168v1.168H208Z" transform="translate(-199.823 -281.395)" fill="#fff"/>
    <path id="Path_139" data-name="Path 139" d="M240,296h1.168v1.168H240Z" transform="translate(-229.487 -281.395)" fill="#fff"/>
    <path id="Path_140" data-name="Path 140" d="M248,168h1.168v1.168H248Z" transform="translate(-236.903 -162.74)" fill="#fff"/>
    <path id="Path_141" data-name="Path 141" d="M280,168h1.168v1.168H280Z" transform="translate(-266.566 -162.74)" fill="#fff"/>
    <path id="Path_142" data-name="Path 142" d="M216,168h1.168v1.168H216Z" transform="translate(-207.239 -162.74)" fill="#fff"/>
    <path id="Path_143" data-name="Path 143" d="M118.828,104.139h.029a11.585,11.585,0,0,0-.436-1.168h-.037a11.672,11.672,0,0,0-21.4,0h-.037a11.585,11.585,0,0,0-.436,1.168h.029a11.7,11.7,0,0,0,0,7.009H96.51a11.586,11.586,0,0,0,.436,1.168h.037a11.672,11.672,0,0,0,21.4,0h.037a11.585,11.585,0,0,0,.436-1.168h-.029A11.7,11.7,0,0,0,118.828,104.139Zm-11.144,14.018A10.514,10.514,0,1,1,118.2,107.644,10.513,10.513,0,0,1,107.684,118.158Z" transform="translate(-96.003 -95.959)" fill="#fff"/>
  </symbol>
  <symbol id="bill" viewBox="0 0 19.497 23.369">
    <path id="Path_126" data-name="Path 126" d="M883,1762.133h11.016a.5.5,0,1,0,0-1H883a.5.5,0,1,0,0,1Z" transform="translate(-879.499 -1750.116)" fill="#fff"/>
    <path id="Path_127" data-name="Path 127" d="M897.611,1753.367h6.009a.5.5,0,1,0,0-1h-6.009a.5.5,0,1,0,0,1Z" transform="translate(-889.1 -1744.356)" fill="#fff"/>
    <path id="Path_128" data-name="Path 128" d="M884,1743.725h-1a.5.5,0,1,0,0,1h.5a.5.5,0,0,0,1,0v-.093a1.5,1.5,0,0,0-.5-2.912.5.5,0,0,1,0-1h1a.5.5,0,1,0,0-1h-.5a.5.5,0,1,0-1,0v.092a1.5,1.5,0,0,0,.5,2.912.5.5,0,1,1,0,1Z" transform="translate(-879.499 -1735.714)" fill="#fff"/>
    <path id="Path_129" data-name="Path 129" d="M891.764,1741.748V1734.5a.5.5,0,0,0-.146-.354l-5.008-5.008a.49.49,0,0,0-.354-.146H875.742a2,2,0,0,0-2,2v20.026a2,2,0,0,0,2,2h6.4a8.909,8.909,0,1,0,9.619-11.279Zm-5.005-11.044,3.3,3.3H887.76a1,1,0,0,1-1-1Zm-11.017,21.322a1,1,0,0,1-1-1V1731a1,1,0,0,1,1-1h10.015v3a2,2,0,0,0,2,2h3v6.684h-.049a8.834,8.834,0,0,0-4.673,1.328h-8.8a.5.5,0,1,0,0,1h7.475a8.77,8.77,0,0,0-1.644,2h-5.831a.5.5,0,1,0,0,1h5.313a8.654,8.654,0,0,0-.61,2h-4.7a.5.5,0,1,0,0,1h4.581c-.013.189-.019.381-.019.573a8.915,8.915,0,0,0,.116,1.431Zm14.975,6.366a7.808,7.808,0,0,1-7.405-5.364,6.593,6.593,0,0,1-.256-1,7.583,7.583,0,0,1-.135-1.431c0-.192.008-.383.024-.573a7.161,7.161,0,0,1,.135-1,7.628,7.628,0,0,1,.713-2,7.145,7.145,0,0,1,.618-1,7.782,7.782,0,0,1,6.306-3.221h.049a7.572,7.572,0,0,1,1,.073,7.8,7.8,0,0,1-1.047,15.521Z" transform="translate(-873.741 -1728.995)" fill="#fff"/>
    <path id="Path_130" data-name="Path 130" d="M923.238,1782.312l-.48-.481v-4.968a.555.555,0,0,0-.508-.553.3.3,0,0,0-.049,0,.557.557,0,0,0-.556.556v5.2a.551.551,0,0,0,.162.391l.251.251.713.713,2.935,2.935a.557.557,0,1,0,.788-.788Z" transform="translate(-905.226 -1760.091)" fill="#fff"/>
  </symbol>
  <symbol id="bill_colored" viewBox="0 0 22.886 30.514">
    <path id="Path_119" data-name="Path 119" d="M335.815,1735.531l-6.357-6.357a.636.636,0,0,0-.449-.186h-13.35a2.546,2.546,0,0,0-2.543,2.543v25.429a2.546,2.546,0,0,0,2.543,2.543h17.8a2.546,2.546,0,0,0,2.543-2.543V1735.98A.635.635,0,0,0,335.815,1735.531Zm-6.171-4.373,4.187,4.187h-2.915a1.272,1.272,0,0,1-1.271-1.271Zm5.085,25.8a1.272,1.272,0,0,1-1.271,1.271h-17.8a1.272,1.272,0,0,1-1.271-1.271V1731.53a1.273,1.273,0,0,1,1.271-1.271h12.714v3.814a2.546,2.546,0,0,0,2.543,2.543h3.814Z" transform="translate(-313.115 -1728.987)" fill="#0A182E"/>
    <path id="Path_120" data-name="Path 120" d="M338.865,1780.919H324.879a.636.636,0,0,0,0,1.271h13.986a.636.636,0,1,0,0-1.271Z" transform="translate(-320.429 -1763.119)" fill="#0A182E"/>
    <path id="Path_121" data-name="Path 121" d="M338.865,1769.791H324.879a.636.636,0,0,0,0,1.271h13.986a.636.636,0,1,0,0-1.271Z" transform="translate(-320.429 -1755.805)" fill="#0A182E"/>
    <path id="Path_122" data-name="Path 122" d="M338.865,1792.047H324.879a.636.636,0,0,0,0,1.272h13.986a.636.636,0,1,0,0-1.272Z" transform="translate(-320.429 -1770.433)" fill="#0A182E"/>
    <path id="Path_123" data-name="Path 123" d="M332.508,1803.175h-7.629a.636.636,0,0,0,0,1.272h7.629a.636.636,0,0,0,0-1.272Z" transform="translate(-320.429 -1777.746)" fill="#0A182E"/>
    <path id="Path_124" data-name="Path 124" d="M342.791,1759.3a.635.635,0,0,0,.635.636h7.629a.636.636,0,1,0,0-1.272h-7.629A.635.635,0,0,0,342.791,1759.3Z" transform="translate(-332.619 -1748.491)" fill="#0A182E"/>
    <path id="Path_125" data-name="Path 125" d="M326.151,1747.691h-1.272a.636.636,0,0,0,0,1.271h.636a.636.636,0,1,0,1.272,0v-.117a1.9,1.9,0,0,0-.636-3.7.636.636,0,1,1,0-1.271h1.271a.636.636,0,1,0,0-1.271h-.636a.636.636,0,1,0-1.271,0v.117a1.9,1.9,0,0,0,.636,3.7.636.636,0,0,1,0,1.271Z" transform="translate(-320.429 -1737.52)" fill="#0A182E"/>
  </symbol>
  <symbol id="bill_white" viewBox="0 0 22.886 30.514">
    <path id="Path_119" data-name="Path 119" d="M335.815,1735.531l-6.357-6.357a.636.636,0,0,0-.449-.186h-13.35a2.546,2.546,0,0,0-2.543,2.543v25.429a2.546,2.546,0,0,0,2.543,2.543h17.8a2.546,2.546,0,0,0,2.543-2.543V1735.98A.635.635,0,0,0,335.815,1735.531Zm-6.171-4.373,4.187,4.187h-2.915a1.272,1.272,0,0,1-1.271-1.271Zm5.085,25.8a1.272,1.272,0,0,1-1.271,1.271h-17.8a1.272,1.272,0,0,1-1.271-1.271V1731.53a1.273,1.273,0,0,1,1.271-1.271h12.714v3.814a2.546,2.546,0,0,0,2.543,2.543h3.814Z" transform="translate(-313.115 -1728.987)" fill="#fff"/>
    <path id="Path_120" data-name="Path 120" d="M338.865,1780.919H324.879a.636.636,0,0,0,0,1.271h13.986a.636.636,0,1,0,0-1.271Z" transform="translate(-320.429 -1763.119)" fill="#fff"/>
    <path id="Path_121" data-name="Path 121" d="M338.865,1769.791H324.879a.636.636,0,0,0,0,1.271h13.986a.636.636,0,1,0,0-1.271Z" transform="translate(-320.429 -1755.805)" fill="#fff"/>
    <path id="Path_122" data-name="Path 122" d="M338.865,1792.047H324.879a.636.636,0,0,0,0,1.272h13.986a.636.636,0,1,0,0-1.272Z" transform="translate(-320.429 -1770.433)" fill="#fff"/>
    <path id="Path_123" data-name="Path 123" d="M332.508,1803.175h-7.629a.636.636,0,0,0,0,1.272h7.629a.636.636,0,0,0,0-1.272Z" transform="translate(-320.429 -1777.746)" fill="#fff"/>
    <path id="Path_124" data-name="Path 124" d="M342.791,1759.3a.635.635,0,0,0,.635.636h7.629a.636.636,0,1,0,0-1.272h-7.629A.635.635,0,0,0,342.791,1759.3Z" transform="translate(-332.619 -1748.491)" fill="#fff"/>
    <path id="Path_125" data-name="Path 125" d="M326.151,1747.691h-1.272a.636.636,0,0,0,0,1.271h.636a.636.636,0,1,0,1.272,0v-.117a1.9,1.9,0,0,0-.636-3.7.636.636,0,1,1,0-1.271h1.271a.636.636,0,1,0,0-1.271h-.636a.636.636,0,1,0-1.271,0v.117a1.9,1.9,0,0,0,.636,3.7.636.636,0,0,1,0,1.271Z" transform="translate(-320.429 -1737.52)" fill="#fff"/>
  </symbol>
  <symbol id="bill_2" viewBox="0 0 25.884 30.509">
    <path id="Path_126" data-name="Path 126" d="M883,1762.133h11.016a.5.5,0,1,0,0-1H883a.5.5,0,1,0,0,1Z" transform="translate(-879.499 -1750.116)" fill="#0A182E"/>
    <path id="Path_127" data-name="Path 127" d="M897.611,1753.367h6.009a.5.5,0,1,0,0-1h-6.009a.5.5,0,1,0,0,1Z" transform="translate(-889.1 -1744.356)" fill="#0A182E"/>
    <path id="Path_128" data-name="Path 128" d="M884,1743.725h-1a.5.5,0,1,0,0,1h.5a.5.5,0,0,0,1,0v-.093a1.5,1.5,0,0,0-.5-2.912.5.5,0,0,1,0-1h1a.5.5,0,1,0,0-1h-.5a.5.5,0,1,0-1,0v.092a1.5,1.5,0,0,0,.5,2.912.5.5,0,1,1,0,1Z" transform="translate(-879.499 -1735.714)" fill="#0A182E"/>
    <path id="Path_129" data-name="Path 129" d="M891.764,1741.748V1734.5a.5.5,0,0,0-.146-.354l-5.008-5.008a.49.49,0,0,0-.354-.146H875.742a2,2,0,0,0-2,2v20.026a2,2,0,0,0,2,2h6.4a8.909,8.909,0,1,0,9.619-11.279Zm-5.005-11.044,3.3,3.3H887.76a1,1,0,0,1-1-1Zm-11.017,21.322a1,1,0,0,1-1-1V1731a1,1,0,0,1,1-1h10.015v3a2,2,0,0,0,2,2h3v6.684h-.049a8.834,8.834,0,0,0-4.673,1.328h-8.8a.5.5,0,1,0,0,1h7.475a8.77,8.77,0,0,0-1.644,2h-5.831a.5.5,0,1,0,0,1h5.313a8.654,8.654,0,0,0-.61,2h-4.7a.5.5,0,1,0,0,1h4.581c-.013.189-.019.381-.019.573a8.915,8.915,0,0,0,.116,1.431Zm14.975,6.366a7.808,7.808,0,0,1-7.405-5.364,6.593,6.593,0,0,1-.256-1,7.583,7.583,0,0,1-.135-1.431c0-.192.008-.383.024-.573a7.161,7.161,0,0,1,.135-1,7.628,7.628,0,0,1,.713-2,7.145,7.145,0,0,1,.618-1,7.782,7.782,0,0,1,6.306-3.221h.049a7.572,7.572,0,0,1,1,.073,7.8,7.8,0,0,1-1.047,15.521Z" transform="translate(-873.741 -1728.995)" fill="#0A182E"/>
    <path id="Path_130" data-name="Path 130" d="M923.238,1782.312l-.48-.481v-4.968a.555.555,0,0,0-.508-.553.3.3,0,0,0-.049,0,.557.557,0,0,0-.556.556v5.2a.551.551,0,0,0,.162.391l.251.251.713.713,2.935,2.935a.557.557,0,1,0,.788-.788Z" transform="translate(-905.226 -1760.091)" fill="#0A182E"/>
  </symbol>
  <symbol id="report_white" viewBox="0 0 18.554 23.269">
    <path id="Path_54" data-name="Path 54" d="M448.67,2114.322a.454.454,0,0,0-.454.455v.818a4.18,4.18,0,1,0,4.61,4.61h.818a.454.454,0,0,0,.454-.454A5.434,5.434,0,0,0,448.67,2114.322Zm0,8.7a3.271,3.271,0,0,1-.454-6.51v3.239a.454.454,0,0,0,.454.455h3.24A3.276,3.276,0,0,1,448.67,2123.02Zm.455-3.725h0v-4.041a4.527,4.527,0,0,1,4.041,4.041Z" transform="translate(-442.054 -2111.835)" fill="#fff"/>
    <path id="Path_55" data-name="Path 55" d="M453.679,2146.959H445a.454.454,0,1,0,0,.909h8.68a.454.454,0,0,0,0-.909Z" transform="translate(-442.09 -2133.586)" fill="#fff"/>
    <path id="Path_56" data-name="Path 56" d="M447.907,2153.533H445a.454.454,0,1,0,0,.909h2.908a.454.454,0,1,0,0-.909Z" transform="translate(-442.09 -2137.968)" fill="#fff"/>
    <path id="Path_57" data-name="Path 57" d="M455.74,2129.225h-.012v-9.407a.453.453,0,0,0-.188-.368v-1.659a.452.452,0,0,0,.005-.064v-6.044a.455.455,0,0,0-.133-.322L451.049,2107a.456.456,0,0,0-.321-.133H438.549a1.365,1.365,0,0,0-1.363,1.363v20.542a1.365,1.365,0,0,0,1.363,1.363H455.74Zm-4.557-20.808,2.811,2.812h-2.357a.455.455,0,0,1-.455-.455Zm-5.816,20.808h-2v-3.165h2Zm4.726,0h-2v-5.772h2Zm1.818-9.407v9.407H451V2123a.454.454,0,0,0-.454-.454h-2.909a.454.454,0,0,0-.454.454v6.226h-.909v-3.619a.455.455,0,0,0-.455-.455h-2.908a.455.455,0,0,0-.455.455v3.619h-3.908a.455.455,0,0,1-.454-.454v-20.542a.455.455,0,0,1,.454-.454h11.724v3a1.365,1.365,0,0,0,1.363,1.363h3v7.226h-2.271A.455.455,0,0,0,451.911,2119.817Zm2.908,9.407h-2v-8.953h2Z" transform="translate(-437.186 -2106.865)" fill="#fff"/>
  </symbol>
    <symbol id="report_active" viewBox="0 0 18.554 23.269">
    <path id="Path_54" data-name="Path 54" d="M448.67,2114.322a.454.454,0,0,0-.454.455v.818a4.18,4.18,0,1,0,4.61,4.61h.818a.454.454,0,0,0,.454-.454A5.434,5.434,0,0,0,448.67,2114.322Zm0,8.7a3.271,3.271,0,0,1-.454-6.51v3.239a.454.454,0,0,0,.454.455h3.24A3.276,3.276,0,0,1,448.67,2123.02Zm.455-3.725h0v-4.041a4.527,4.527,0,0,1,4.041,4.041Z" transform="translate(-442.054 -2111.835)" fill="#B72A28"/>
    <path id="Path_55" data-name="Path 55" d="M453.679,2146.959H445a.454.454,0,1,0,0,.909h8.68a.454.454,0,0,0,0-.909Z" transform="translate(-442.09 -2133.586)" fill="#B72A28"/>
    <path id="Path_56" data-name="Path 56" d="M447.907,2153.533H445a.454.454,0,1,0,0,.909h2.908a.454.454,0,1,0,0-.909Z" transform="translate(-442.09 -2137.968)" fill="#B72A28"/>
    <path id="Path_57" data-name="Path 57" d="M455.74,2129.225h-.012v-9.407a.453.453,0,0,0-.188-.368v-1.659a.452.452,0,0,0,.005-.064v-6.044a.455.455,0,0,0-.133-.322L451.049,2107a.456.456,0,0,0-.321-.133H438.549a1.365,1.365,0,0,0-1.363,1.363v20.542a1.365,1.365,0,0,0,1.363,1.363H455.74Zm-4.557-20.808,2.811,2.812h-2.357a.455.455,0,0,1-.455-.455Zm-5.816,20.808h-2v-3.165h2Zm4.726,0h-2v-5.772h2Zm1.818-9.407v9.407H451V2123a.454.454,0,0,0-.454-.454h-2.909a.454.454,0,0,0-.454.454v6.226h-.909v-3.619a.455.455,0,0,0-.455-.455h-2.908a.455.455,0,0,0-.455.455v3.619h-3.908a.455.455,0,0,1-.454-.454v-20.542a.455.455,0,0,1,.454-.454h11.724v3a1.365,1.365,0,0,0,1.363,1.363h3v7.226h-2.271A.455.455,0,0,0,451.911,2119.817Zm2.908,9.407h-2v-8.953h2Z" transform="translate(-437.186 -2106.865)" fill="#B72A28"/>
  </symbol>
  <symbol id="notification_white" viewBox="0 0 18.554 23.269">
    <path id="Path_39" data-name="Path 39" d="M765.4,2125.383a3.628,3.628,0,0,1-1.1-1.5,17.373,17.373,0,0,1-1.149-6.865c0-.009,0-.017,0-.026a6.626,6.626,0,0,0-3.9-6.009V2109.4a2.6,2.6,0,0,0-2.6-2.6h-.215a2.6,2.6,0,0,0-2.6,2.6v1.581a6.627,6.627,0,0,0-3.9,6.036,17.371,17.371,0,0,1-1.149,6.865,3.629,3.629,0,0,1-1.1,1.5.665.665,0,0,0-.365.756.7.7,0,0,0,.686.535h5.014a3.522,3.522,0,0,0,7.044,0h5.014a.7.7,0,0,0,.686-.535A.665.665,0,0,0,765.4,2125.383ZM755.2,2109.4a1.231,1.231,0,0,1,1.229-1.231h.215a1.231,1.231,0,0,1,1.229,1.231v1.137a6.612,6.612,0,0,0-2.673,0V2109.4Zm1.336,19.38a2.158,2.158,0,0,1-2.154-2.107h4.307A2.159,2.159,0,0,1,756.539,2128.781Zm2.755-3.477h-9.732a7.193,7.193,0,0,0,.359-.629,17.323,17.323,0,0,0,1.382-7.657,5.237,5.237,0,1,1,10.474,0c0,.009,0,.017,0,.026a17.285,17.285,0,0,0,1.382,7.63,7.176,7.176,0,0,0,.359.629Z" transform="translate(-747.3 -2106.799)" fill="#fff"/>
  </symbol>
  <symbol id="notification_active" viewBox="0 0 18.554 23.269">
    <path id="Path_39" data-name="Path 39" d="M765.4,2125.383a3.628,3.628,0,0,1-1.1-1.5,17.373,17.373,0,0,1-1.149-6.865c0-.009,0-.017,0-.026a6.626,6.626,0,0,0-3.9-6.009V2109.4a2.6,2.6,0,0,0-2.6-2.6h-.215a2.6,2.6,0,0,0-2.6,2.6v1.581a6.627,6.627,0,0,0-3.9,6.036,17.371,17.371,0,0,1-1.149,6.865,3.629,3.629,0,0,1-1.1,1.5.665.665,0,0,0-.365.756.7.7,0,0,0,.686.535h5.014a3.522,3.522,0,0,0,7.044,0h5.014a.7.7,0,0,0,.686-.535A.665.665,0,0,0,765.4,2125.383ZM755.2,2109.4a1.231,1.231,0,0,1,1.229-1.231h.215a1.231,1.231,0,0,1,1.229,1.231v1.137a6.612,6.612,0,0,0-2.673,0V2109.4Zm1.336,19.38a2.158,2.158,0,0,1-2.154-2.107h4.307A2.159,2.159,0,0,1,756.539,2128.781Zm2.755-3.477h-9.732a7.193,7.193,0,0,0,.359-.629,17.323,17.323,0,0,0,1.382-7.657,5.237,5.237,0,1,1,10.474,0c0,.009,0,.017,0,.026a17.285,17.285,0,0,0,1.382,7.63,7.176,7.176,0,0,0,.359.629Z" transform="translate(-747.3 -2106.799)" fill="#B72A28"/>
  </symbol>
  <symbol id="user_grey" viewBox="0 0 17.415 20.874">
    <path id="Path_85" data-name="Path 85" d="M240.509,1123.218a5.029,5.029,0,1,0-3.555-1.473A4.864,4.864,0,0,0,240.509,1123.218Zm-2.69-7.718a3.8,3.8,0,1,1-1.115,2.69A3.635,3.635,0,0,1,237.819,1115.5Z" transform="translate(-231.933 -1113.163)" fill="#b2b2b2"/>
    <path id="Path_86" data-name="Path 86" d="M243,1147.138a12.484,12.484,0,0,0-.169-1.319,10.342,10.342,0,0,0-.324-1.326,6.544,6.544,0,0,0-.545-1.237,4.658,4.658,0,0,0-.822-1.071,3.614,3.614,0,0,0-1.181-.742,4.082,4.082,0,0,0-1.508-.273,1.531,1.531,0,0,0-.817.346c-.245.16-.532.344-.851.549a4.874,4.874,0,0,1-1.1.485,4.282,4.282,0,0,1-2.694,0,4.867,4.867,0,0,1-1.1-.485c-.316-.2-.6-.387-.852-.549a1.528,1.528,0,0,0-.817-.347,4.08,4.08,0,0,0-1.507.273,3.623,3.623,0,0,0-1.181.742,4.67,4.67,0,0,0-.822,1.071,6.556,6.556,0,0,0-.545,1.237,10.4,10.4,0,0,0-.324,1.326,12.253,12.253,0,0,0-.169,1.319c-.028.4-.042.813-.042,1.233a3.467,3.467,0,0,0,1.029,2.622,3.706,3.706,0,0,0,2.653.967h10.051a3.705,3.705,0,0,0,2.653-.967,3.465,3.465,0,0,0,1.03-2.623C243.04,1147.951,243.026,1147.536,243,1147.138Zm-1.831,2.969a2.5,2.5,0,0,1-1.809.63H229.307a2.5,2.5,0,0,1-1.809-.63,2.264,2.264,0,0,1-.649-1.736c0-.391.013-.778.039-1.148a11.122,11.122,0,0,1,.153-1.188,9.228,9.228,0,0,1,.285-1.169,5.345,5.345,0,0,1,.444-1.005,3.444,3.444,0,0,1,.6-.792,2.4,2.4,0,0,1,.786-.489,2.808,2.808,0,0,1,.963-.186c.043.023.119.066.243.147.251.164.541.351.862.556a6.078,6.078,0,0,0,1.382.618,5.5,5.5,0,0,0,3.447,0,6.06,6.06,0,0,0,1.383-.618c.328-.21.61-.391.861-.555.124-.081.2-.124.243-.147a2.81,2.81,0,0,1,.963.186,2.4,2.4,0,0,1,.786.489,3.455,3.455,0,0,1,.6.792,5.33,5.33,0,0,1,.444,1.005,9.189,9.189,0,0,1,.285,1.169,11.273,11.273,0,0,1,.153,1.188h0c.026.369.039.755.039,1.148A2.262,2.262,0,0,1,241.167,1150.108Z" transform="translate(-225.625 -1131.087)" fill="#b2b2b2"/>
  </symbol>
  <symbol id="qr_grey" viewBox="0 0 22.864 22.864">
    <g id="Group_54" data-name="Group 54" transform="translate(14.581 0)">
      <path id="Path_87" data-name="Path 87" d="M1009.826,1121.284a.952.952,0,0,1-.953-.953v-4.516a.912.912,0,0,0-.91-.91h-4.516a.953.953,0,0,1,0-1.906h4.516a2.818,2.818,0,0,1,2.815,2.816v4.516A.952.952,0,0,1,1009.826,1121.284Z" transform="translate(-1002.495 -1113)" fill="#b2b2b2"/>
    </g>
    <g id="Group_55" data-name="Group 55" transform="translate(0 0)">
      <path id="Path_88" data-name="Path 88" d="M962.947,1121.284a.952.952,0,0,1-.953-.953v-4.516a2.818,2.818,0,0,1,2.815-2.816h4.516a.953.953,0,0,1,0,1.906h-4.516a.912.912,0,0,0-.91.91v4.516A.952.952,0,0,1,962.947,1121.284Z" transform="translate(-961.994 -1113)" fill="#b2b2b2"/>
    </g>
    <g id="Group_56" data-name="Group 56" transform="translate(14.581 14.58)">
      <path id="Path_89" data-name="Path 89" d="M1007.963,1161.783h-4.516a.953.953,0,0,1,0-1.905h4.516a.912.912,0,0,0,.91-.911v-4.516a.953.953,0,1,1,1.906,0v4.516A2.818,2.818,0,0,1,1007.963,1161.783Z" transform="translate(-1002.495 -1153.498)" fill="#b2b2b2"/>
    </g>
    <g id="Group_57" data-name="Group 57" transform="translate(0 14.58)">
      <path id="Path_90" data-name="Path 90" d="M969.325,1161.783h-4.516a2.818,2.818,0,0,1-2.815-2.816v-4.516a.953.953,0,1,1,1.905,0v4.516a.912.912,0,0,0,.91.911h4.516a.953.953,0,1,1,0,1.905Z" transform="translate(-961.994 -1153.498)" fill="#b2b2b2"/>
    </g>
    <g id="Group_58" data-name="Group 58" transform="translate(3.334 3.334)">
      <path id="Path_91" data-name="Path 91" d="M976.951,1129.559h-4.742a.953.953,0,0,1-.953-.953v-5.391a.952.952,0,0,1,.953-.953h4.742a.952.952,0,0,1,.953.953v5.391A.953.953,0,0,1,976.951,1129.559Zm-3.79-1.906H976v-3.486h-2.837Z" transform="translate(-971.256 -1122.262)" fill="#b2b2b2"/>
    </g>
    <g id="Group_59" data-name="Group 59" transform="translate(13.099 12.861)">
      <path id="Path_92" data-name="Path 92" d="M1003.858,1155.393h-4.525a.952.952,0,0,1-.953-.953v-3.031a.953.953,0,1,1,1.905,0v2.079h2.62v-2.858h-1.126a.953.953,0,1,1,0-1.906h2.079a.953.953,0,0,1,.953.953v4.763A.952.952,0,0,1,1003.858,1155.393Z" transform="translate(-998.38 -1148.724)" fill="#b2b2b2"/>
    </g>
    <g id="Group_60" data-name="Group 60" transform="translate(13.727 3.334)">
      <path id="Path_93" data-name="Path 93" d="M1004.974,1128.065h-3.9a.952.952,0,0,1-.953-.953v-3.9a.952.952,0,0,1,.953-.953h3.9a.952.952,0,0,1,.953.953v3.9A.952.952,0,0,1,1004.974,1128.065Zm-2.945-1.905h1.992v-1.992h-1.992Z" transform="translate(-1000.124 -1122.262)" fill="#b2b2b2"/>
    </g>
    <g id="Group_61" data-name="Group 61" transform="translate(3.334 4.2)">
      <path id="Path_94" data-name="Path 94" d="M979.809,1133.934h-7.6a.953.953,0,1,1,0-1.905h6.648v-6.409a.953.953,0,1,1,1.906,0v7.361A.953.953,0,0,1,979.809,1133.934Z" transform="translate(-971.256 -1124.667)" fill="#b2b2b2"/>
    </g>
    <g id="Group_62" data-name="Group 62" transform="translate(13.576 10.025)">
      <path id="Path_95" data-name="Path 95" d="M1000.656,1144.051a.953.953,0,0,1-.953-.953v-1.3a.952.952,0,0,1,.953-.953h4.287a.953.953,0,1,1,0,1.905h-3.334v.346A.952.952,0,0,1,1000.656,1144.051Z" transform="translate(-999.703 -1140.847)" fill="#b2b2b2"/>
    </g>
    <g id="Group_63" data-name="Group 63" transform="translate(10.5 14.223)">
      <path id="Path_96" data-name="Path 96" d="M992.114,1156.576a.953.953,0,0,1-.953-.953v-2.165a.953.953,0,0,1,1.905,0v2.165A.953.953,0,0,1,992.114,1156.576Z" transform="translate(-991.161 -1152.506)" fill="#b2b2b2"/>
    </g>
    <g id="Group_64" data-name="Group 64" transform="translate(3.334 14.161)">
      <path id="Path_97" data-name="Path 97" d="M976.734,1157.7h-4.525a.952.952,0,0,1-.953-.953v-3.464a.952.952,0,0,1,.953-.953h4.525a.952.952,0,0,1,.953.953v3.464A.952.952,0,0,1,976.734,1157.7Zm-3.573-1.905h2.62v-1.559h-2.62Z" transform="translate(-971.256 -1152.334)" fill="#b2b2b2"/>
    </g>
  </symbol>
  <symbol id="password_grey" viewBox="0 0 15.255 20.341">
    <g id="Group_50" data-name="Group 50">
      <path id="Path_82" data-name="Path 82" d="M245.8,1387.818l-.267,2.4a.424.424,0,0,0,.421.471h1.7a.424.424,0,0,0,.421-.471l-.267-2.4a1.676,1.676,0,0,0,.694-1.363,1.7,1.7,0,1,0-3.39,0A1.676,1.676,0,0,0,245.8,1387.818Zm1-2.211a.844.844,0,0,1,.366,1.607.424.424,0,0,0-.237.428l.245,2.2h-.748l.245-2.2a.424.424,0,0,0-.237-.428.844.844,0,0,1,.366-1.607Z" transform="translate(-239.171 -1373.742)" fill="#b2b2b2"/>
      <path id="Path_83" data-name="Path 83" d="M243.457,1361.784h-1.271v-1.7a5.933,5.933,0,0,0-11.866,0v1.7h-1.271a.423.423,0,0,0-.424.424V1372.8a1.7,1.7,0,0,0,1.695,1.695h11.866a1.7,1.7,0,0,0,1.695-1.695v-10.594A.423.423,0,0,0,243.457,1361.784Zm-12.289-1.7a5.085,5.085,0,1,1,10.17,0v1.7h-.847v-1.7a4.238,4.238,0,1,0-8.475,0v1.7h-.848Zm8.475,0v1.7h-6.78v-1.7a3.39,3.39,0,0,1,6.78,0Zm3.39,12.713a.849.849,0,0,1-.847.847H230.32a.849.849,0,0,1-.847-.847v-10.17h13.56Z" transform="translate(-228.625 -1354.156)" fill="#b2b2b2"/>
    </g>
  </symbol>
  <symbol id="home_white" viewBox="0 0 23.383 23.384">
    <path id="Path_102" data-name="Path 102" d="M142.75,2116.974v0l-9.543-9.539a2.149,2.149,0,0,0-3.043,0l-9.543,9.543a2.15,2.15,0,0,0,1.433,3.667.438.438,0,0,0,.067,0h.381v7.021a2.518,2.518,0,0,0,2.518,2.519h3.731a.684.684,0,0,0,.685-.685v-5.5a1.154,1.154,0,0,1,1.152-1.149h2.2a1.151,1.151,0,0,1,1.149,1.149v5.5a.686.686,0,0,0,.688.685h3.731a2.52,2.52,0,0,0,2.518-2.519v-7.021h.354a2.15,2.15,0,0,0,1.523-3.671Zm-.972,2.071a.767.767,0,0,1-.551.23h-1.035a.684.684,0,0,0-.688.685v7.706a1.151,1.151,0,0,1-1.149,1.149h-3.046v-4.82a2.525,2.525,0,0,0-2.522-2.518h-2.2a2.523,2.523,0,0,0-2.522,2.518v4.82h-3.046a1.151,1.151,0,0,1-1.149-1.149v-7.706a.684.684,0,0,0-.688-.685h-1.049a.783.783,0,0,1-.541-1.336l9.539-9.539a.778.778,0,0,1,1.106,0l9.539,9.536a.01.01,0,0,0,0,.007A.777.777,0,0,1,141.778,2119.045Z" transform="translate(-119.996 -2106.8)" fill="#fff"/>
  </symbol>
    <symbol id="home_active" viewBox="0 0 23.383 23.384">
    <path id="Path_102" data-name="Path 102" d="M142.75,2116.974v0l-9.543-9.539a2.149,2.149,0,0,0-3.043,0l-9.543,9.543a2.15,2.15,0,0,0,1.433,3.667.438.438,0,0,0,.067,0h.381v7.021a2.518,2.518,0,0,0,2.518,2.519h3.731a.684.684,0,0,0,.685-.685v-5.5a1.154,1.154,0,0,1,1.152-1.149h2.2a1.151,1.151,0,0,1,1.149,1.149v5.5a.686.686,0,0,0,.688.685h3.731a2.52,2.52,0,0,0,2.518-2.519v-7.021h.354a2.15,2.15,0,0,0,1.523-3.671Zm-.972,2.071a.767.767,0,0,1-.551.23h-1.035a.684.684,0,0,0-.688.685v7.706a1.151,1.151,0,0,1-1.149,1.149h-3.046v-4.82a2.525,2.525,0,0,0-2.522-2.518h-2.2a2.523,2.523,0,0,0-2.522,2.518v4.82h-3.046a1.151,1.151,0,0,1-1.149-1.149v-7.706a.684.684,0,0,0-.688-.685h-1.049a.783.783,0,0,1-.541-1.336l9.539-9.539a.778.778,0,0,1,1.106,0l9.539,9.536a.01.01,0,0,0,0,.007A.777.777,0,0,1,141.778,2119.045Z" transform="translate(-119.996 -2106.8)" fill="#B72A28"/>
  </symbol>
</svg>
