<svg id="notification" xmlns="http://www.w3.org/2000/svg" width="18.478" height="23.352" viewBox="0 0 18.478 23.352">
  <path id="Path_39" data-name="Path 39" d="M765.4,2125.383a3.628,3.628,0,0,1-1.1-1.5,17.373,17.373,0,0,1-1.149-6.865c0-.009,0-.017,0-.026a6.626,6.626,0,0,0-3.9-6.009V2109.4a2.6,2.6,0,0,0-2.6-2.6h-.215a2.6,2.6,0,0,0-2.6,2.6v1.581a6.627,6.627,0,0,0-3.9,6.036,17.371,17.371,0,0,1-1.149,6.865,3.629,3.629,0,0,1-1.1,1.5.665.665,0,0,0-.365.756.7.7,0,0,0,.686.535h5.014a3.522,3.522,0,0,0,7.044,0h5.014a.7.7,0,0,0,.686-.535A.665.665,0,0,0,765.4,2125.383ZM755.2,2109.4a1.231,1.231,0,0,1,1.229-1.231h.215a1.231,1.231,0,0,1,1.229,1.231v1.137a6.612,6.612,0,0,0-2.673,0V2109.4Zm1.336,19.38a2.158,2.158,0,0,1-2.154-2.107h4.307A2.159,2.159,0,0,1,756.539,2128.781Zm2.755-3.477h-9.732a7.193,7.193,0,0,0,.359-.629,17.323,17.323,0,0,0,1.382-7.657,5.237,5.237,0,1,1,10.474,0c0,.009,0,.017,0,.026a17.285,17.285,0,0,0,1.382,7.63,7.176,7.176,0,0,0,.359.629Z" transform="translate(-747.3 -2106.799)" fill="#fff"/>
</svg>
