<svg xmlns="http://www.w3.org/2000/svg" width="23.383" height="23.384" viewBox="0 0 23.383 23.384">
  <path id="Path_102" data-name="Path 102" d="M142.75,2116.974v0l-9.543-9.539a2.149,2.149,0,0,0-3.043,0l-9.543,9.543a2.15,2.15,0,0,0,1.433,3.667.438.438,0,0,0,.067,0h.381v7.021a2.518,2.518,0,0,0,2.518,2.519h3.731a.684.684,0,0,0,.685-.685v-5.5a1.154,1.154,0,0,1,1.152-1.149h2.2a1.151,1.151,0,0,1,1.149,1.149v5.5a.686.686,0,0,0,.688.685h3.731a2.52,2.52,0,0,0,2.518-2.519v-7.021h.354a2.15,2.15,0,0,0,1.523-3.671Zm-.972,2.071a.767.767,0,0,1-.551.23h-1.035a.684.684,0,0,0-.688.685v7.706a1.151,1.151,0,0,1-1.149,1.149h-3.046v-4.82a2.525,2.525,0,0,0-2.522-2.518h-2.2a2.523,2.523,0,0,0-2.522,2.518v4.82h-3.046a1.151,1.151,0,0,1-1.149-1.149v-7.706a.684.684,0,0,0-.688-.685h-1.049a.783.783,0,0,1-.541-1.336l9.539-9.539a.778.778,0,0,1,1.106,0l9.539,9.536a.01.01,0,0,0,0,.007A.777.777,0,0,1,141.778,2119.045Z" transform="translate(-119.996 -2106.8)" fill="#fff"/>
</svg>
