<svg id="user" xmlns="http://www.w3.org/2000/svg" width="19.497" height="23.369" viewBox="0 0 19.497 23.369">
  <path id="Path_35" data-name="Path 35" d="M1073.311,2118.1a5.63,5.63,0,1,0-3.98-1.649A5.447,5.447,0,0,0,1073.311,2118.1Zm-3.011-8.64a4.257,4.257,0,1,1-1.248,3.011A4.068,4.068,0,0,1,1070.3,2109.461Z" transform="translate(-1063.71 -2106.844)" fill="#fff"/>
  <path id="Path_36" data-name="Path 36" d="M1075.222,2147.371a13.9,13.9,0,0,0-.189-1.477,11.661,11.661,0,0,0-.363-1.485,7.337,7.337,0,0,0-.61-1.385,5.213,5.213,0,0,0-.92-1.2,4.05,4.05,0,0,0-1.322-.831,4.566,4.566,0,0,0-1.688-.306,1.713,1.713,0,0,0-.915.388c-.274.179-.595.385-.953.615a5.487,5.487,0,0,1-1.233.543,4.785,4.785,0,0,1-3.016,0,5.426,5.426,0,0,1-1.232-.543c-.355-.226-.676-.433-.954-.615a1.71,1.71,0,0,0-.915-.388,4.564,4.564,0,0,0-1.688.306,4.054,4.054,0,0,0-1.322.831,5.229,5.229,0,0,0-.92,1.2,7.325,7.325,0,0,0-.61,1.385,11.677,11.677,0,0,0-.363,1.484,13.811,13.811,0,0,0-.189,1.477c-.031.446-.047.911-.047,1.38a3.88,3.88,0,0,0,1.152,2.936,4.147,4.147,0,0,0,2.97,1.083h11.253a4.147,4.147,0,0,0,2.969-1.083,3.878,3.878,0,0,0,1.153-2.936C1075.269,2148.28,1075.253,2147.815,1075.222,2147.371Zm-2.05,3.324a2.793,2.793,0,0,1-2.026.706h-11.253a2.793,2.793,0,0,1-2.026-.706,2.534,2.534,0,0,1-.727-1.944c0-.438.014-.871.043-1.286a12.39,12.39,0,0,1,.171-1.33,10.228,10.228,0,0,1,.319-1.309,5.965,5.965,0,0,1,.5-1.126,3.873,3.873,0,0,1,.676-.887,2.685,2.685,0,0,1,.88-.546,3.139,3.139,0,0,1,1.079-.208c.048.025.133.074.272.164.281.184.606.393.965.622a6.77,6.77,0,0,0,1.547.692,6.156,6.156,0,0,0,3.859,0,6.8,6.8,0,0,0,1.549-.692c.367-.235.682-.438.964-.622.138-.09.224-.139.272-.164a3.14,3.14,0,0,1,1.079.208,2.693,2.693,0,0,1,.879.546,3.861,3.861,0,0,1,.677.887,5.951,5.951,0,0,1,.5,1.126,10.332,10.332,0,0,1,.32,1.309,12.683,12.683,0,0,1,.171,1.331h0c.029.413.044.845.044,1.285A2.533,2.533,0,0,1,1073.172,2150.695Z" transform="translate(-1055.772 -2129.4)" fill="#fff"/>
</svg>
