<svg id="bill_2" data-name="bill 2" xmlns="http://www.w3.org/2000/svg" width="25.884" height="30.509" viewBox="0 0 25.884 30.509">
  <path id="Path_126" data-name="Path 126" d="M883,1762.133h11.016a.5.5,0,1,0,0-1H883a.5.5,0,1,0,0,1Z" transform="translate(-879.499 -1750.116)" fill="#fff"/>
  <path id="Path_127" data-name="Path 127" d="M897.611,1753.367h6.009a.5.5,0,1,0,0-1h-6.009a.5.5,0,1,0,0,1Z" transform="translate(-889.1 -1744.356)" fill="#fff"/>
  <path id="Path_128" data-name="Path 128" d="M884,1743.725h-1a.5.5,0,1,0,0,1h.5a.5.5,0,0,0,1,0v-.093a1.5,1.5,0,0,0-.5-2.912.5.5,0,0,1,0-1h1a.5.5,0,1,0,0-1h-.5a.5.5,0,1,0-1,0v.092a1.5,1.5,0,0,0,.5,2.912.5.5,0,1,1,0,1Z" transform="translate(-879.499 -1735.714)" fill="#fff"/>
  <path id="Path_129" data-name="Path 129" d="M891.764,1741.748V1734.5a.5.5,0,0,0-.146-.354l-5.008-5.008a.49.49,0,0,0-.354-.146H875.742a2,2,0,0,0-2,2v20.026a2,2,0,0,0,2,2h6.4a8.909,8.909,0,1,0,9.619-11.279Zm-5.005-11.044,3.3,3.3H887.76a1,1,0,0,1-1-1Zm-11.017,21.322a1,1,0,0,1-1-1V1731a1,1,0,0,1,1-1h10.015v3a2,2,0,0,0,2,2h3v6.684h-.049a8.834,8.834,0,0,0-4.673,1.328h-8.8a.5.5,0,1,0,0,1h7.475a8.77,8.77,0,0,0-1.644,2h-5.831a.5.5,0,1,0,0,1h5.313a8.654,8.654,0,0,0-.61,2h-4.7a.5.5,0,1,0,0,1h4.581c-.013.189-.019.381-.019.573a8.915,8.915,0,0,0,.116,1.431Zm14.975,6.366a7.808,7.808,0,0,1-7.405-5.364,6.593,6.593,0,0,1-.256-1,7.583,7.583,0,0,1-.135-1.431c0-.192.008-.383.024-.573a7.161,7.161,0,0,1,.135-1,7.628,7.628,0,0,1,.713-2,7.145,7.145,0,0,1,.618-1,7.782,7.782,0,0,1,6.306-3.221h.049a7.572,7.572,0,0,1,1,.073,7.8,7.8,0,0,1-1.047,15.521Z" transform="translate(-873.741 -1728.995)" fill="#fff"/>
  <path id="Path_130" data-name="Path 130" d="M923.238,1782.312l-.48-.481v-4.968a.555.555,0,0,0-.508-.553.3.3,0,0,0-.049,0,.557.557,0,0,0-.556.556v5.2a.551.551,0,0,0,.162.391l.251.251.713.713,2.935,2.935a.557.557,0,1,0,.788-.788Z" transform="translate(-905.226 -1760.091)" fill="#fff"/>
</svg>
