<svg id="Group_117" data-name="Group 117" xmlns="http://www.w3.org/2000/svg" width="17.415" height="20.874" viewBox="0 0 17.415 20.874">
  <path id="Path_85" data-name="Path 85" d="M240.509,1123.218a5.029,5.029,0,1,0-3.555-1.473A4.864,4.864,0,0,0,240.509,1123.218Zm-2.69-7.718a3.8,3.8,0,1,1-1.115,2.69A3.635,3.635,0,0,1,237.819,1115.5Z" transform="translate(-231.933 -1113.163)" fill="#b2b2b2"/>
  <path id="Path_86" data-name="Path 86" d="M243,1147.138a12.484,12.484,0,0,0-.169-1.319,10.342,10.342,0,0,0-.324-1.326,6.544,6.544,0,0,0-.545-1.237,4.658,4.658,0,0,0-.822-1.071,3.614,3.614,0,0,0-1.181-.742,4.082,4.082,0,0,0-1.508-.273,1.531,1.531,0,0,0-.817.346c-.245.16-.532.344-.851.549a4.874,4.874,0,0,1-1.1.485,4.282,4.282,0,0,1-2.694,0,4.867,4.867,0,0,1-1.1-.485c-.316-.2-.6-.387-.852-.549a1.528,1.528,0,0,0-.817-.347,4.08,4.08,0,0,0-1.507.273,3.623,3.623,0,0,0-1.181.742,4.67,4.67,0,0,0-.822,1.071,6.556,6.556,0,0,0-.545,1.237,10.4,10.4,0,0,0-.324,1.326,12.253,12.253,0,0,0-.169,1.319c-.028.4-.042.813-.042,1.233a3.467,3.467,0,0,0,1.029,2.622,3.706,3.706,0,0,0,2.653.967h10.051a3.705,3.705,0,0,0,2.653-.967,3.465,3.465,0,0,0,1.03-2.623C243.04,1147.951,243.026,1147.536,243,1147.138Zm-1.831,2.969a2.5,2.5,0,0,1-1.809.63H229.307a2.5,2.5,0,0,1-1.809-.63,2.264,2.264,0,0,1-.649-1.736c0-.391.013-.778.039-1.148a11.122,11.122,0,0,1,.153-1.188,9.228,9.228,0,0,1,.285-1.169,5.345,5.345,0,0,1,.444-1.005,3.444,3.444,0,0,1,.6-.792,2.4,2.4,0,0,1,.786-.489,2.808,2.808,0,0,1,.963-.186c.043.023.119.066.243.147.251.164.541.351.862.556a6.078,6.078,0,0,0,1.382.618,5.5,5.5,0,0,0,3.447,0,6.06,6.06,0,0,0,1.383-.618c.328-.21.61-.391.861-.555.124-.081.2-.124.243-.147a2.81,2.81,0,0,1,.963.186,2.4,2.4,0,0,1,.786.489,3.455,3.455,0,0,1,.6.792,5.33,5.33,0,0,1,.444,1.005,9.189,9.189,0,0,1,.285,1.169,11.273,11.273,0,0,1,.153,1.188h0c.026.369.039.755.039,1.148A2.262,2.262,0,0,1,241.167,1150.108Z" transform="translate(-225.625 -1131.087)" fill="#b2b2b2"/>
</svg>
