<svg id="Group_115" data-name="Group 115" xmlns="http://www.w3.org/2000/svg" width="22.886" height="30.514" viewBox="0 0 22.886 30.514">
  <g id="Group_114" data-name="Group 114" transform="translate(0)">
    <g id="Group_113" data-name="Group 113">
      <path id="Path_119" data-name="Path 119" d="M335.815,1735.531l-6.357-6.357a.636.636,0,0,0-.449-.186h-13.35a2.546,2.546,0,0,0-2.543,2.543v25.429a2.546,2.546,0,0,0,2.543,2.543h17.8a2.546,2.546,0,0,0,2.543-2.543V1735.98A.635.635,0,0,0,335.815,1735.531Zm-6.171-4.373,4.187,4.187h-2.915a1.272,1.272,0,0,1-1.271-1.271Zm5.085,25.8a1.272,1.272,0,0,1-1.271,1.271h-17.8a1.272,1.272,0,0,1-1.271-1.271V1731.53a1.273,1.273,0,0,1,1.271-1.271h12.714v3.814a2.546,2.546,0,0,0,2.543,2.543h3.814Z" transform="translate(-313.115 -1728.987)" fill="#fff"/>
      <path id="Path_120" data-name="Path 120" d="M338.865,1780.919H324.879a.636.636,0,0,0,0,1.271h13.986a.636.636,0,1,0,0-1.271Z" transform="translate(-320.429 -1763.119)" fill="#fff"/>
      <path id="Path_121" data-name="Path 121" d="M338.865,1769.791H324.879a.636.636,0,0,0,0,1.271h13.986a.636.636,0,1,0,0-1.271Z" transform="translate(-320.429 -1755.805)" fill="#fff"/>
      <path id="Path_122" data-name="Path 122" d="M338.865,1792.047H324.879a.636.636,0,0,0,0,1.272h13.986a.636.636,0,1,0,0-1.272Z" transform="translate(-320.429 -1770.433)" fill="#fff"/>
      <path id="Path_123" data-name="Path 123" d="M332.508,1803.175h-7.629a.636.636,0,0,0,0,1.272h7.629a.636.636,0,0,0,0-1.272Z" transform="translate(-320.429 -1777.746)" fill="#fff"/>
      <path id="Path_124" data-name="Path 124" d="M342.791,1759.3a.635.635,0,0,0,.635.636h7.629a.636.636,0,1,0,0-1.272h-7.629A.635.635,0,0,0,342.791,1759.3Z" transform="translate(-332.619 -1748.491)" fill="#fff"/>
      <path id="Path_125" data-name="Path 125" d="M326.151,1747.691h-1.272a.636.636,0,0,0,0,1.271h.636a.636.636,0,1,0,1.272,0v-.117a1.9,1.9,0,0,0-.636-3.7.636.636,0,1,1,0-1.271h1.271a.636.636,0,1,0,0-1.271h-.636a.636.636,0,1,0-1.271,0v.117a1.9,1.9,0,0,0,.636,3.7.636.636,0,0,1,0,1.271Z" transform="translate(-320.429 -1737.52)" fill="#fff"/>
    </g>
  </g>
</svg>
