<svg id="Group_119" data-name="Group 119" xmlns="http://www.w3.org/2000/svg" width="15.255" height="20.341" viewBox="0 0 15.255 20.341">
  <g id="Group_51" data-name="Group 51">
    <g id="Group_50" data-name="Group 50">
      <path id="Path_82" data-name="Path 82" d="M245.8,1387.818l-.267,2.4a.424.424,0,0,0,.421.471h1.7a.424.424,0,0,0,.421-.471l-.267-2.4a1.676,1.676,0,0,0,.694-1.363,1.7,1.7,0,1,0-3.39,0A1.676,1.676,0,0,0,245.8,1387.818Zm1-2.211a.844.844,0,0,1,.366,1.607.424.424,0,0,0-.237.428l.245,2.2h-.748l.245-2.2a.424.424,0,0,0-.237-.428.844.844,0,0,1,.366-1.607Z" transform="translate(-239.171 -1373.742)" fill="#b2b2b2"/>
      <path id="Path_83" data-name="Path 83" d="M243.457,1361.784h-1.271v-1.7a5.933,5.933,0,0,0-11.866,0v1.7h-1.271a.423.423,0,0,0-.424.424V1372.8a1.7,1.7,0,0,0,1.695,1.695h11.866a1.7,1.7,0,0,0,1.695-1.695v-10.594A.423.423,0,0,0,243.457,1361.784Zm-12.289-1.7a5.085,5.085,0,1,1,10.17,0v1.7h-.847v-1.7a4.238,4.238,0,1,0-8.475,0v1.7h-.848Zm8.475,0v1.7h-6.78v-1.7a3.39,3.39,0,0,1,6.78,0Zm3.39,12.713a.849.849,0,0,1-.847.847H230.32a.849.849,0,0,1-.847-.847v-10.17h13.56Z" transform="translate(-228.625 -1354.156)" fill="#b2b2b2"/>
    </g>
  </g>
</svg>
