<svg id="report" xmlns="http://www.w3.org/2000/svg" width="18.554" height="23.269" viewBox="0 0 18.554 23.269">
  <path id="Path_54" data-name="Path 54" d="M448.67,2114.322a.454.454,0,0,0-.454.455v.818a4.18,4.18,0,1,0,4.61,4.61h.818a.454.454,0,0,0,.454-.454A5.434,5.434,0,0,0,448.67,2114.322Zm0,8.7a3.271,3.271,0,0,1-.454-6.51v3.239a.454.454,0,0,0,.454.455h3.24A3.276,3.276,0,0,1,448.67,2123.02Zm.455-3.725h0v-4.041a4.527,4.527,0,0,1,4.041,4.041Z" transform="translate(-442.054 -2111.835)" fill="#fff"/>
  <path id="Path_55" data-name="Path 55" d="M453.679,2146.959H445a.454.454,0,1,0,0,.909h8.68a.454.454,0,0,0,0-.909Z" transform="translate(-442.09 -2133.586)" fill="#fff"/>
  <path id="Path_56" data-name="Path 56" d="M447.907,2153.533H445a.454.454,0,1,0,0,.909h2.908a.454.454,0,1,0,0-.909Z" transform="translate(-442.09 -2137.968)" fill="#fff"/>
  <path id="Path_57" data-name="Path 57" d="M455.74,2129.225h-.012v-9.407a.453.453,0,0,0-.188-.368v-1.659a.452.452,0,0,0,.005-.064v-6.044a.455.455,0,0,0-.133-.322L451.049,2107a.456.456,0,0,0-.321-.133H438.549a1.365,1.365,0,0,0-1.363,1.363v20.542a1.365,1.365,0,0,0,1.363,1.363H455.74Zm-4.557-20.808,2.811,2.812h-2.357a.455.455,0,0,1-.455-.455Zm-5.816,20.808h-2v-3.165h2Zm4.726,0h-2v-5.772h2Zm1.818-9.407v9.407H451V2123a.454.454,0,0,0-.454-.454h-2.909a.454.454,0,0,0-.454.454v6.226h-.909v-3.619a.455.455,0,0,0-.455-.455h-2.908a.455.455,0,0,0-.455.455v3.619h-3.908a.455.455,0,0,1-.454-.454v-20.542a.455.455,0,0,1,.454-.454h11.724v3a1.365,1.365,0,0,0,1.363,1.363h3v7.226h-2.271A.455.455,0,0,0,451.911,2119.817Zm2.908,9.407h-2v-8.953h2Z" transform="translate(-437.186 -2106.865)" fill="#fff"/>
</svg>
